<?xml version="1.0" encoding="UTF-8" standalone="no"?>
<!-- Generator: Adobe Illustrator 16.0.4, SVG Export Plug-In . SVG Version: 6.00 Build 0)  -->

<svg
   xmlns:dc="http://purl.org/dc/elements/1.1/"
   xmlns:cc="http://creativecommons.org/ns#"
   xmlns:rdf="http://www.w3.org/1999/02/22-rdf-syntax-ns#"
   xmlns:svg="http://www.w3.org/2000/svg"
   xmlns="http://www.w3.org/2000/svg"
   xmlns:sodipodi="http://sodipodi.sourceforge.net/DTD/sodipodi-0.dtd"
   xmlns:inkscape="http://www.inkscape.org/namespaces/inkscape"
   version="1.1"
   id="Layer_1"
   x="0px"
   y="0px"
   width="100"
   height="100"
   viewBox="0 0 100 100"
   enable-background="new 0 0 400 400"
   xml:space="preserve"
   inkscape:version="0.48.4 r9939"
   sodipodi:docname="fclogo.svg"><metadata
     id="metadata43"><rdf:RDF><cc:Work
         rdf:about=""><dc:format>image/svg+xml</dc:format><dc:type
           rdf:resource="http://purl.org/dc/dcmitype/StillImage" /></cc:Work></rdf:RDF></metadata><defs
     id="defs41" /><sodipodi:namedview
     pagecolor="#000000"
     bordercolor="#000000"
     borderopacity="1"
     objecttolerance="10"
     gridtolerance="10"
     guidetolerance="10"
     inkscape:pageopacity="0"
     inkscape:pageshadow="2"
     inkscape:window-width="655"
     inkscape:window-height="480"
     id="namedview39"
     showgrid="false"
     inkscape:zoom="0.59"
     inkscape:cx="200"
     inkscape:cy="200"
     inkscape:window-x="0"
     inkscape:window-y="0"
     inkscape:window-maximized="0"
     inkscape:current-layer="Layer_1" /><g
     id="g3"
     transform="matrix(0.26863713,0,0,0.26863713,-3.9407871,1.8805671)"
     style="fill:#ffffff"><path
       d="m 55.182,131.838 c 0.497,-1.457 1.475,-1.938 2.932,-1.44 l 8.162,2.786 c 1.385,0.473 1.938,1.475 1.44,2.933 l -6.268,18.364 c -0.473,1.385 -0.018,2.436 1.44,2.933 l 2.332,0.796 c 1.385,0.473 2.459,-0.056 2.932,-1.44 l 4.104,-12.024 c 0.497,-1.457 1.475,-1.938 2.933,-1.439 l 8.162,2.785 c 1.385,0.473 1.938,1.475 1.439,2.933 l -4.104,12.024 c -0.473,1.385 -0.018,2.435 1.439,2.933 l 14.867,5.073 c 1.385,0.473 1.938,1.476 1.44,2.933 l -2.935,8.6 c -0.473,1.385 -1.549,1.913 -2.934,1.44 L 45.922,166.11 c -1.457,-0.498 -1.912,-1.548 -1.439,-2.933 l 10.699,-31.339 z"
       id="path5"
       inkscape:connector-curvature="0"
       style="fill:#ffffff" /><path
       d="m 120.702,104.625 c 3.827,3.344 13.384,13.123 1.378,26.868 -12.006,13.746 -22.98,5.591 -26.809,2.247 l -14.5,-12.664 c -3.828,-3.344 -13.385,-13.122 -1.379,-26.868 12.007,-13.746 22.982,-5.591 26.81,-2.247 l 14.5,12.664 z m -20.14,-0.004 c -4.465,-3.9 -7.445,-5.991 -11.193,-1.699 -3.749,4.291 -1.276,6.963 3.189,10.863 l 8.352,7.295 c 4.467,3.9 7.445,5.991 11.194,1.7 3.749,-4.292 1.276,-6.963 -3.19,-10.864 l -8.352,-7.295 z"
       id="path7"
       inkscape:connector-curvature="0"
       style="fill:#ffffff" /><path
       d="m 124.758,59.318 c 1.39,-0.664 2.416,-0.302 3.081,1.088 L 140.86,87.64 c 2.558,5.349 4.466,8.448 9.607,5.99 5.141,-2.458 3.927,-5.89 1.37,-11.239 L 138.815,55.158 c -0.664,-1.39 -0.232,-2.45 1.088,-3.081 l 7.78,-3.72 c 1.391,-0.665 2.417,-0.302 3.082,1.087 l 14.781,30.916 c 2.193,4.585 7.1,17.347 -9.365,25.22 -16.465,7.873 -23.318,-3.959 -25.51,-8.544 L 115.888,66.12 c -0.664,-1.389 -0.231,-2.45 1.088,-3.081 l 7.782,-3.721 z"
       id="path9"
       inkscape:connector-curvature="0"
       style="fill:#ffffff" /><path
       d="m 191.375,40.197 c 1.309,-0.028 2.166,0.492 2.732,1.712 l 11.028,25.406 c 0.323,0.686 0.936,0.519 0.919,-0.251 L 205.512,42.2 c -0.033,-1.54 0.797,-2.328 2.26,-2.36 l 8.621,-0.188 c 1.54,-0.034 2.326,0.72 2.36,2.259 l 1.074,49.268 c 0.032,1.463 -0.72,2.326 -2.259,2.359 l -11.316,0.247 c -1.309,0.028 -2.168,-0.492 -2.732,-1.712 L 192.49,66.667 c -0.322,-0.686 -0.936,-0.519 -0.918,0.251 l 0.542,24.865 c 0.032,1.462 -0.72,2.326 -2.259,2.359 l -8.623,0.188 c -1.462,0.032 -2.327,-0.796 -2.359,-2.259 l -1.074,-49.268 c -0.033,-1.54 0.797,-2.328 2.26,-2.359 l 11.316,-0.247 z"
       id="path11"
       inkscape:connector-curvature="0"
       style="fill:#ffffff" /><path
       d="m 265.361,53.096 c 13.313,5.686 15.405,12.943 10.445,24.557 l -6.623,15.508 c -4.96,11.614 -11.68,15.192 -24.992,9.507 l -15.793,-6.744 c -1.345,-0.575 -1.791,-1.687 -1.217,-3.032 l 19.326,-45.251 c 0.604,-1.417 1.615,-1.822 3.062,-1.288 l 15.792,6.743 z m -15.756,37.482 c 3.398,1.451 5.341,1.61 7.155,-2.639 0.03,-0.07 6.623,-15.508 6.653,-15.579 1.875,-4.391 0.357,-5.542 -3.042,-6.993 l -3.824,-1.633 c -1.346,-0.575 -2.427,-0.199 -3.032,1.217 l -8.951,20.961 c -0.574,1.346 -0.129,2.457 1.217,3.031 l 3.824,1.635 z"
       id="path13"
       inkscape:connector-curvature="0"
       style="fill:#ffffff" /><path
       d="m 329.445,101.554 c 1.068,1.108 1.049,2.197 -0.06,3.266 l -6.209,5.985 c -1.054,1.015 -2.197,1.049 -3.267,-0.061 L 306.977,97.329 c -1.015,-1.054 -2.156,-1.129 -3.266,-0.06 l -1.773,1.71 c -1.054,1.015 -1.076,2.213 -0.061,3.266 l 8.283,8.593 c 1.068,1.108 1.049,2.197 -0.061,3.266 l -6.209,5.985 c -1.053,1.016 -2.197,1.049 -3.266,-0.061 l -8.283,-8.592 c -1.015,-1.054 -2.156,-1.129 -3.266,-0.061 l -1.773,1.71 c -1.054,1.016 -1.076,2.213 -0.061,3.267 l 12.932,13.415 c 1.068,1.109 1.049,2.197 -0.061,3.267 l -6.208,5.984 c -1.108,1.069 -2.198,1.049 -3.267,-0.06 l -22.443,-23.283 c -1.015,-1.053 -0.992,-2.251 0.061,-3.266 l 35.479,-34.2 c 1.108,-1.068 2.251,-0.993 3.266,0.06 l 22.445,23.285 z"
       id="path15"
       inkscape:connector-curvature="0"
       style="fill:#ffffff" /><path
       d="m 313.58,182.747 c -1.505,1.704 -3.954,1.295 -4.78,-0.944 l -3.039,-8.234 c -0.267,-0.723 -0.146,-1.506 0.398,-2.035 l 11.747,-12.87 c 0.163,-0.225 0.228,-0.495 0.147,-0.712 l -1.065,-2.889 c -0.48,-1.301 -1.766,-1.893 -3.066,-1.413 l -11.413,4.212 c -1.3,0.479 -2.586,-0.113 -3.065,-1.413 l -2.986,-8.091 c -0.479,-1.3 0.113,-2.585 1.414,-3.065 l 46.086,-17.007 c 1.3,-0.48 2.586,0.112 3.064,1.413 l 5.838,15.819 c 4.746,12.857 1.176,20.085 -10.672,24.456 -6.717,2.479 -12.025,2.551 -16.184,-0.265 -0.323,-0.209 -0.711,-0.148 -1.02,0.13 l -11.404,12.908 z m 25.656,-35.895 c -0.48,-1.3 -1.766,-1.893 -3.066,-1.413 l -5.345,1.973 c -1.3,0.48 -1.894,1.766 -1.413,3.066 l 1.359,3.684 c 1.279,3.468 2.354,5.041 6.832,3.389 4.479,-1.653 4.271,-3.547 2.992,-7.014 l -1.359,-3.685 z"
       id="path17"
       inkscape:connector-curvature="0"
       style="fill:#ffffff" /></g><g
     id="g19"
     transform="matrix(0.26863713,0,0,0.26863713,-3.9407871,1.8805671)"
     style="fill:#ffffff"><path
       d="m 81.201,226.929 c 4.751,-1.804 17.876,-5.633 24.354,11.429 5.82,15.334 -3.572,21.618 -9.006,24.011 -0.98,0.454 -2.02,0.106 -2.617,-0.819 l -4.834,-7.308 c -0.861,-1.402 -0.291,-2.937 1.139,-3.727 3.031,-1.562 4.411,-3.569 2.936,-7.456 -2.022,-5.328 -5.543,-4.403 -11.086,-2.299 l -10.367,3.936 c -5.543,2.104 -8.789,3.748 -6.768,9.076 1.504,3.959 3.785,4.328 7.26,3.503 1.595,-0.357 2.968,0.438 3.154,2.016 l 1.288,8.818 c 0.167,1.09 -0.379,2.038 -1.486,2.376 -5.581,1.789 -16.777,3.321 -22.599,-12.013 -6.477,-17.062 5.883,-22.907 10.635,-24.711 l 17.997,-6.832 z"
       id="path21"
       inkscape:connector-curvature="0"
       style="fill:#ffffff" /><path
       d="m 135.752,283.823 c 1.035,1.141 0.982,2.229 -0.158,3.263 l -6.387,5.796 c -1.082,0.982 -2.228,0.981 -3.262,-0.158 l -12.522,-13.8 c -0.983,-1.083 -2.122,-1.193 -3.263,-0.158 l -1.824,1.655 c -1.084,0.983 -1.143,2.18 -0.158,3.264 l 8.02,8.838 c 1.035,1.141 0.982,2.229 -0.158,3.263 l -6.387,5.796 c -1.084,0.982 -2.229,0.981 -3.264,-0.159 l -8.02,-8.838 c -0.982,-1.084 -2.123,-1.193 -3.263,-0.158 l -1.825,1.655 c -1.083,0.983 -1.141,2.18 -0.158,3.263 l 12.521,13.8 c 1.035,1.141 0.982,2.229 -0.158,3.263 l -6.387,5.795 c -1.141,1.035 -2.228,0.982 -3.263,-0.158 L 74.105,296.096 c -0.983,-1.083 -0.926,-2.279 0.158,-3.263 l 36.494,-33.115 c 1.141,-1.035 2.279,-0.925 3.263,0.158 l 21.732,23.947 z"
       id="path23"
       inkscape:connector-curvature="0"
       style="fill:#ffffff" /><path
       d="m 152.096,293.265 c 1.189,0.544 1.736,1.387 1.714,2.731 l -1.138,27.671 c -0.008,0.759 0.617,0.874 0.938,0.174 l 10.34,-22.617 c 0.641,-1.4 1.73,-1.748 3.061,-1.14 l 7.843,3.585 c 1.4,0.641 1.78,1.661 1.14,3.062 l -20.488,44.814 c -0.607,1.33 -1.66,1.78 -3.061,1.14 l -10.293,-4.706 c -1.19,-0.544 -1.736,-1.386 -1.715,-2.73 l 1.137,-27.672 c 0.009,-0.758 -0.615,-0.874 -0.936,-0.174 l -10.34,22.617 c -0.609,1.331 -1.661,1.781 -3.062,1.141 l -7.843,-3.586 c -1.33,-0.607 -1.748,-1.73 -1.141,-3.061 L 138.74,289.7 c 0.641,-1.4 1.731,-1.749 3.062,-1.141 l 10.294,4.706 z"
       id="path25"
       inkscape:connector-curvature="0"
       style="fill:#ffffff" /><path
       d="m 195.846,321.154 c -0.025,-1.54 -0.808,-2.298 -2.348,-2.272 l -10.779,0.175 c -1.463,0.024 -2.324,-0.81 -2.348,-2.272 l -0.141,-8.623 c -0.024,-1.54 0.811,-2.324 2.273,-2.348 l 39.421,-0.641 c 1.54,-0.024 2.323,0.732 2.348,2.272 l 0.141,8.623 c 0.023,1.464 -0.732,2.323 -2.272,2.348 l -10.779,0.176 c -1.463,0.023 -2.298,0.807 -2.272,2.347 l 0.585,36.034 c 0.023,1.463 -0.732,2.322 -2.271,2.348 l -8.624,0.141 c -1.463,0.023 -2.323,-0.81 -2.348,-2.272 l -0.586,-36.036 z"
       id="path27"
       inkscape:connector-curvature="0"
       style="fill:#ffffff" /><path
       d="m 290.549,328.943 c 1.866,1.299 1.741,3.779 -0.389,4.857 l -7.831,3.964 c -0.688,0.348 -1.479,0.317 -2.067,-0.162 l -14.134,-10.191 c -0.241,-0.136 -0.518,-0.169 -0.724,-0.064 l -2.747,1.391 c -1.237,0.626 -1.678,1.971 -1.052,3.208 l 5.494,10.854 c 0.626,1.236 0.186,2.581 -1.052,3.207 l -7.693,3.896 c -1.236,0.626 -2.582,0.185 -3.208,-1.052 L 232.96,305.024 c -0.626,-1.237 -0.186,-2.582 1.051,-3.208 l 15.045,-7.615 c 12.228,-6.19 19.816,-3.474 25.52,7.793 3.233,6.389 3.914,11.653 1.595,16.106 -0.17,0.346 -0.065,0.724 0.246,0.998 l 14.132,9.845 z m -38.603,-21.364 c -1.236,0.626 -1.678,1.971 -1.052,3.208 l 2.573,5.083 c 0.626,1.236 1.972,1.678 3.208,1.052 l 3.503,-1.773 c 3.298,-1.669 4.737,-2.916 2.582,-7.175 -2.156,-4.26 -4.014,-3.837 -7.312,-2.168 l -3.502,1.773 z"
       id="path29"
       inkscape:connector-curvature="0"
       style="fill:#ffffff" /><path
       d="m 281.559,268.551 c 1.041,-1.134 2.129,-1.18 3.264,-0.138 l 36.289,33.34 c 1.077,0.989 1.18,2.13 0.138,3.264 l -5.729,6.237 c -0.99,1.077 -2.188,1.128 -3.265,0.139 l -36.289,-33.34 c -1.134,-1.042 -1.128,-2.187 -0.138,-3.265 l 5.73,-6.237 z"
       id="path31"
       inkscape:connector-curvature="0"
       style="fill:#ffffff" /><path
       d="m 306.684,265.581 c -4.679,-1.987 -16.802,-8.309 -9.667,-25.106 6.412,-15.097 17.541,-13.131 23.119,-11.096 1.022,0.351 1.531,1.319 1.322,2.402 l -1.569,8.62 c -0.349,1.608 -1.823,2.321 -3.401,1.901 -3.27,-0.97 -5.654,-0.478 -7.28,3.351 -2.228,5.244 0.953,7.014 6.411,9.332 l 10.206,4.335 c 5.457,2.318 8.939,3.379 11.167,-1.866 1.655,-3.898 0.265,-5.744 -2.815,-7.554 -1.397,-0.845 -1.838,-2.37 -0.881,-3.638 l 5.174,-7.257 c 0.634,-0.901 1.685,-1.208 2.718,-0.686 5.266,2.571 14.408,9.216 7.995,24.312 -7.135,16.798 -20.102,12.461 -24.779,10.475 l -17.72,-7.525 z"
       id="path33"
       inkscape:connector-curvature="0"
       style="fill:#ffffff" /></g><circle
     cx="69.509003"
     cy="200.797"
     r="7.9650002"
     id="circle35"
     sodipodi:cx="69.509003"
     sodipodi:cy="200.797"
     sodipodi:rx="7.9650002"
     sodipodi:ry="7.9650002"
     transform="matrix(0.26863713,0,0,0.26863713,-3.9407871,1.8805671)"
     style="fill:#ffffff" /><circle
     cx="331.509"
     cy="200.797"
     r="7.9650002"
     id="circle37"
     sodipodi:cx="331.509"
     sodipodi:cy="200.797"
     sodipodi:rx="7.9650002"
     sodipodi:ry="7.9650002"
     transform="matrix(0.26863713,0,0,0.26863713,-3.9407871,1.8805671)"
     style="fill:#ffffff" /></svg>